<?xml version="1.0" encoding="UTF-8"?>
<!DOCTYPE svg PUBLIC "-//W3C//DTD SVG 1.1//EN" "http://www.w3.org/Graphics/SVG/1.1/DTD/svg11.dtd">
<svg version="1.1" xmlns="http://www.w3.org/2000/svg" xmlns:xlink="http://www.w3.org/1999/xlink" x="0" y="0" width="132.6" height="19.2" viewBox="0, 0, 132.6, 19.2">
  <g id="Layer_1-2">
    <path d="M60.725,-0 L61.125,-0 L61.125,19.2 L60.725,19.2 z" fill="#FFFFFF"/>
    <path d="M7.394,16.994 C3.311,16.994 0,13.684 0,9.6 C0,5.516 3.311,2.206 7.394,2.206 C11.478,2.206 14.789,5.516 14.789,9.6 C14.789,13.684 11.478,16.994 7.394,16.994 z" fill="#5EA9DD"/>
    <g>
      <path d="M12.419,11.508 L12.419,11.527 L12.415,11.561 L12.409,11.591 L12.4,11.619 L12.39,11.644 L12.38,11.663 L12.371,11.676 L12.366,11.681 L12.366,11.678 L12.372,11.67 L12.378,11.662 L12.379,11.659 L12.371,11.664 L12.354,11.676 L12.328,11.694 L12.294,11.716 L12.253,11.74 L12.206,11.766 L12.155,11.794 L12.099,11.822 L12.039,11.85 L11.975,11.878 L11.908,11.907 L11.838,11.935 L11.764,11.963 L11.687,11.991 L11.608,12.018 L11.526,12.045 L11.441,12.071 L11.353,12.097 L11.263,12.123 L11.17,12.148 L11.075,12.172 L10.978,12.196 L10.878,12.219 L10.776,12.242 L10.671,12.264 L10.565,12.286 L10.456,12.307 L10.346,12.327 L10.233,12.346 L10.119,12.365 L10.002,12.383 L9.884,12.401 L9.764,12.418 L9.642,12.434 L9.518,12.449 L9.393,12.464 L9.266,12.477 L9.138,12.49 L9.008,12.503 L8.876,12.514 L8.743,12.525 L8.609,12.534 L8.473,12.543 L8.336,12.552 L8.198,12.559 L8.058,12.565 L7.918,12.571 L7.776,12.575 L7.633,12.579 L7.489,12.582 L7.345,12.584 L7.199,12.585 L7.126,12.585 L7.126,12.585 C7.072,12.585 6.949,12.676 6.849,12.789 C6.75,12.902 6.712,12.993 6.766,12.993 L6.839,12.993 L6.986,12.992 L7.131,12.99 L7.275,12.987 L7.419,12.984 L7.561,12.979 L7.703,12.973 L7.843,12.967 L7.982,12.96 L8.119,12.951 L8.256,12.942 L8.391,12.933 L8.525,12.922 L8.657,12.91 L8.788,12.898 L8.917,12.885 L9.045,12.871 L9.171,12.856 L9.296,12.841 L9.419,12.825 L9.54,12.808 L9.66,12.79 L9.777,12.772 L9.893,12.753 L10.007,12.733 L10.119,12.712 L10.229,12.691 L10.337,12.669 L10.443,12.647 L10.547,12.624 L10.649,12.6 L10.749,12.575 L10.846,12.55 L10.942,12.525 L11.035,12.498 L11.126,12.471 L11.214,12.444 L11.3,12.416 L11.384,12.387 L11.466,12.357 L11.546,12.327 L11.623,12.296 L11.698,12.264 L11.771,12.231 L11.842,12.198 L11.912,12.163 L11.98,12.126 L12.047,12.088 L12.114,12.047 L12.181,12.002 L12.251,11.953 L12.323,11.897 L12.398,11.834 L12.476,11.762 L12.552,11.684 L12.62,11.605 L12.678,11.53 L12.723,11.463 L12.757,11.404 L12.783,11.35 L12.801,11.301 L12.815,11.255 L12.823,11.211 L12.827,11.169 L12.827,11.151 C12.827,11.151 12.827,11.151 12.827,11.151 C12.829,11.096 12.738,11.133 12.626,11.231 C12.513,11.33 12.421,11.454 12.419,11.508 L12.419,11.508" fill="#FFFDFD"/>
      <path d="M1.438,11.511 L1.438,11.53 L1.442,11.57 L1.45,11.61 L1.461,11.65 L1.476,11.689 L1.495,11.727 L1.517,11.764 L1.543,11.801 L1.572,11.838 L1.605,11.874 L1.64,11.91 L1.679,11.945 L1.721,11.98 L1.766,12.014 L1.815,12.048 L1.866,12.082 L1.92,12.115 L1.978,12.147 L2.038,12.179 L2.101,12.211 L2.167,12.242 L2.236,12.273 L2.307,12.303 L2.382,12.333 L2.459,12.362 L2.538,12.391 L2.62,12.419 L2.705,12.447 L2.792,12.474 L2.881,12.501 L2.973,12.527 L3.068,12.552 L3.164,12.577 L3.263,12.601 L3.364,12.625 L3.468,12.648 L3.573,12.67 L3.681,12.692 L3.79,12.713 L3.902,12.733 L4.015,12.753 L4.131,12.772 L4.248,12.79 L4.367,12.808 L4.488,12.825 L4.611,12.841 L4.735,12.856 L4.861,12.871 L4.989,12.885 L5.118,12.898 L5.249,12.91 L5.381,12.922 L5.514,12.933 L5.649,12.942 L5.786,12.951 L5.923,12.96 L6.062,12.967 L6.202,12.973 L6.344,12.979 L6.486,12.984 L6.629,12.987 L6.774,12.99 L6.919,12.992 L7.066,12.993 L7.139,12.993 L7.139,12.993 C7.192,12.993 7.316,12.902 7.415,12.789 C7.515,12.676 7.553,12.585 7.5,12.585 L7.426,12.585 L7.281,12.584 L7.136,12.582 L6.992,12.579 L6.849,12.575 L6.707,12.571 L6.566,12.565 L6.427,12.559 L6.289,12.552 L6.151,12.543 L6.016,12.534 L5.881,12.525 L5.748,12.514 L5.616,12.503 L5.486,12.49 L5.358,12.477 L5.23,12.463 L5.105,12.449 L4.981,12.434 L4.859,12.417 L4.739,12.401 L4.62,12.383 L4.503,12.365 L4.388,12.346 L4.275,12.326 L4.164,12.306 L4.055,12.285 L3.948,12.263 L3.843,12.241 L3.74,12.218 L3.64,12.195 L3.542,12.171 L3.446,12.146 L3.352,12.121 L3.261,12.095 L3.172,12.069 L3.085,12.042 L3.001,12.014 L2.92,11.986 L2.841,11.958 L2.765,11.929 L2.691,11.899 L2.621,11.869 L2.553,11.839 L2.488,11.808 L2.425,11.777 L2.366,11.745 L2.31,11.713 L2.256,11.681 L2.206,11.648 L2.159,11.615 L2.115,11.581 L2.074,11.548 L2.036,11.514 L2.002,11.479 L1.971,11.445 L1.943,11.41 L1.919,11.375 L1.898,11.34 L1.881,11.306 L1.867,11.271 L1.857,11.236 L1.85,11.202 L1.846,11.167 L1.846,11.148 C1.844,11.096 1.752,11.135 1.639,11.236 C1.527,11.336 1.436,11.459 1.438,11.511 L1.438,11.511" fill="#FFFDFD"/>
    </g>
    <path d="M25.259,4.542 L19.517,13.032 L25.123,13.032 L25.123,14.072 L17.801,14.072 L17.801,13.75 L23.496,5.308 L18.259,5.308 L18.259,4.269 L25.259,4.269 z" fill="#FFFFFF"/>
    <path d="M35.513,7.072 L33.415,14.072 L32.253,14.072 L30.81,9.061 Q30.728,8.774 30.701,8.411 L30.674,8.411 Q30.653,8.657 30.53,9.047 L28.965,14.072 L27.843,14.072 L25.724,7.072 L26.9,7.072 L28.349,12.335 Q28.418,12.574 28.445,12.964 L28.5,12.964 Q28.52,12.663 28.623,12.322 L30.236,7.072 L31.261,7.072 L32.711,12.349 Q32.779,12.602 32.813,12.978 L32.868,12.978 Q32.882,12.711 32.984,12.349 L34.406,7.072 z" fill="#FFFFFF"/>
    <path d="M41.823,14.072 L40.702,14.072 L40.702,12.978 L40.675,12.978 Q39.943,14.236 38.521,14.236 Q37.475,14.236 36.884,13.682 Q36.293,13.128 36.293,12.212 Q36.293,10.25 38.603,9.929 L40.702,9.635 Q40.702,7.851 39.259,7.851 Q37.995,7.851 36.976,8.712 L36.976,7.564 Q38.009,6.907 39.355,6.907 Q41.823,6.907 41.823,9.519 z M40.702,10.531 L39.013,10.763 Q38.234,10.872 37.838,11.149 Q37.441,11.426 37.441,12.13 Q37.441,12.643 37.807,12.968 Q38.173,13.292 38.781,13.292 Q39.615,13.292 40.158,12.708 Q40.702,12.123 40.702,11.228 z" fill="#FFFFFF"/>
    <path d="M49.438,7.072 L46.649,14.072 L45.549,14.072 L42.896,7.072 L44.127,7.072 L45.904,12.157 Q46.102,12.718 46.15,13.135 L46.177,13.135 Q46.246,12.609 46.396,12.185 L48.256,7.072 z" fill="#FFFFFF"/>
    <path d="M56.185,10.852 L51.243,10.852 Q51.27,12.021 51.872,12.656 Q52.473,13.292 53.526,13.292 Q54.709,13.292 55.7,12.513 L55.7,13.566 Q54.777,14.236 53.259,14.236 Q51.776,14.236 50.928,13.282 Q50.081,12.328 50.081,10.599 Q50.081,8.965 51.007,7.936 Q51.933,6.907 53.307,6.907 Q54.681,6.907 55.433,7.796 Q56.185,8.685 56.185,10.264 z M55.037,9.902 Q55.03,8.931 54.569,8.391 Q54.107,7.851 53.287,7.851 Q52.494,7.851 51.94,8.418 Q51.386,8.986 51.257,9.902 z" fill="#FFFFFF"/>
    <path d="M70.531,14.659 L65.336,14.659 L65.336,4.856 L70.313,4.856 L70.313,5.895 L66.484,5.895 L66.484,9.156 L70.025,9.156 L70.025,10.188 L66.484,10.188 L66.484,13.62 L70.531,13.62 z" fill="#FFFFFF"/>
    <path d="M77.381,7.659 L75.029,11.2 L77.34,14.659 L76.034,14.659 L74.66,12.389 Q74.53,12.178 74.353,11.856 L74.325,11.856 Q74.291,11.918 74.004,12.389 L72.603,14.659 L71.311,14.659 L73.696,11.227 L71.413,7.659 L72.719,7.659 L74.072,10.052 Q74.223,10.318 74.366,10.598 L74.394,10.598 L76.144,7.659 z" fill="#FFFFFF"/>
    <path d="M79.842,13.647 L79.814,13.647 L79.814,17.879 L78.693,17.879 L78.693,7.659 L79.814,7.659 L79.814,8.889 L79.842,8.889 Q80.669,7.495 82.262,7.495 Q83.615,7.495 84.374,8.435 Q85.133,9.375 85.133,10.954 Q85.133,12.711 84.278,13.767 Q83.424,14.823 81.94,14.823 Q80.58,14.823 79.842,13.647 z M79.814,10.824 L79.814,11.802 Q79.814,12.67 80.378,13.275 Q80.942,13.88 81.811,13.88 Q82.829,13.88 83.407,13.1 Q83.984,12.321 83.984,10.933 Q83.984,9.764 83.444,9.101 Q82.904,8.438 81.981,8.438 Q81.004,8.438 80.409,9.118 Q79.814,9.799 79.814,10.824 z" fill="#FFFFFF"/>
    <path d="M88.045,14.659 L86.924,14.659 L86.924,4.296 L88.045,4.296 z" fill="#FFFFFF"/>
    <path d="M93.24,14.823 Q91.688,14.823 90.762,13.842 Q89.836,12.861 89.836,11.241 Q89.836,9.477 90.8,8.486 Q91.764,7.495 93.404,7.495 Q94.97,7.495 95.848,8.459 Q96.727,9.423 96.727,11.132 Q96.727,12.806 95.78,13.815 Q94.833,14.823 93.24,14.823 z M93.322,8.438 Q92.242,8.438 91.613,9.173 Q90.984,9.908 90.984,11.2 Q90.984,12.444 91.62,13.162 Q92.256,13.88 93.322,13.88 Q94.409,13.88 94.994,13.176 Q95.578,12.472 95.578,11.173 Q95.578,9.86 94.994,9.149 Q94.409,8.438 93.322,8.438 z" fill="#FFFFFF"/>
    <path d="M102.168,8.794 Q101.874,8.568 101.32,8.568 Q100.603,8.568 100.121,9.245 Q99.639,9.922 99.639,11.091 L99.639,14.659 L98.518,14.659 L98.518,7.659 L99.639,7.659 L99.639,9.101 L99.666,9.101 Q99.905,8.363 100.397,7.95 Q100.89,7.536 101.498,7.536 Q101.936,7.536 102.168,7.632 z" fill="#FFFFFF"/>
    <path d="M108.826,11.439 L103.884,11.439 Q103.911,12.608 104.513,13.244 Q105.114,13.88 106.167,13.88 Q107.35,13.88 108.341,13.1 L108.341,14.153 Q107.418,14.823 105.9,14.823 Q104.417,14.823 103.569,13.869 Q102.722,12.916 102.722,11.186 Q102.722,9.553 103.648,8.524 Q104.574,7.495 105.948,7.495 Q107.322,7.495 108.074,8.384 Q108.826,9.272 108.826,10.851 z M107.678,10.489 Q107.671,9.518 107.209,8.978 Q106.748,8.438 105.928,8.438 Q105.135,8.438 104.581,9.006 Q104.027,9.573 103.897,10.489 z" fill="#FFFFFF"/>
    <path d="M114.172,8.794 Q113.878,8.568 113.324,8.568 Q112.606,8.568 112.125,9.245 Q111.643,9.922 111.643,11.091 L111.643,14.659 L110.521,14.659 L110.521,7.659 L111.643,7.659 L111.643,9.101 L111.67,9.101 Q111.909,8.363 112.401,7.95 Q112.894,7.536 113.502,7.536 Q113.939,7.536 114.172,7.632 z" fill="#FFFFFF"/>
    <path d="M2.972,10.531 L2.529,10.531 Q2.532,10.37 2.537,9.956 Q2.542,9.542 2.542,8.769 Q2.542,8.463 2.54,7.966 Q2.537,7.469 2.529,6.935 L2.972,6.935 Q2.967,7.319 2.963,7.828 Q2.959,8.337 2.959,8.659 Q2.959,9.475 2.964,9.922 Q2.969,10.37 2.972,10.531 z" fill="#FFFFFF"/>
    <path d="M6.914,8.734 Q6.914,9.169 6.765,9.533 Q6.616,9.897 6.377,10.133 Q6.111,10.396 5.813,10.516 Q5.515,10.635 5.174,10.635 Q4.841,10.635 4.545,10.521 Q4.25,10.407 4.014,10.182 Q3.753,9.937 3.593,9.565 Q3.434,9.193 3.434,8.729 Q3.434,8.315 3.56,7.975 Q3.686,7.636 3.938,7.364 Q4.172,7.112 4.494,6.974 Q4.817,6.835 5.174,6.835 Q5.536,6.835 5.845,6.966 Q6.154,7.096 6.38,7.327 Q6.643,7.595 6.778,7.959 Q6.914,8.323 6.914,8.734 z M6.455,8.777 Q6.455,8.428 6.338,8.091 Q6.221,7.754 5.982,7.526 Q5.821,7.37 5.621,7.284 Q5.421,7.198 5.174,7.198 Q4.932,7.198 4.724,7.285 Q4.516,7.373 4.347,7.542 Q4.132,7.757 4.012,8.073 Q3.893,8.39 3.893,8.734 Q3.893,9.121 4.015,9.427 Q4.137,9.733 4.36,9.945 Q4.513,10.093 4.723,10.183 Q4.932,10.273 5.171,10.273 Q5.41,10.273 5.618,10.186 Q5.826,10.098 5.996,9.935 Q6.197,9.741 6.326,9.442 Q6.455,9.142 6.455,8.777 z" fill="#FFFFFF"/>
    <path d="M9.637,8.165 Q9.637,8.557 9.383,8.874 Q9.129,9.191 8.705,9.303 Q8.522,9.352 8.306,9.373 Q8.09,9.395 7.824,9.395 L7.829,10.531 L7.386,10.531 Q7.389,10.37 7.394,9.933 Q7.4,9.497 7.4,8.584 Q7.4,8.294 7.397,7.872 Q7.394,7.45 7.386,6.935 Q7.502,6.932 7.613,6.932 Q7.725,6.932 7.794,6.932 Q8.259,6.932 8.585,6.991 Q8.912,7.05 9.135,7.193 Q9.379,7.346 9.508,7.591 Q9.637,7.837 9.637,8.165 z M9.178,8.165 Q9.178,7.888 9.051,7.693 Q8.925,7.499 8.665,7.386 Q8.503,7.316 8.315,7.299 Q8.127,7.281 7.929,7.281 Q7.905,7.281 7.88,7.281 Q7.856,7.281 7.829,7.281 Q7.829,7.311 7.824,7.684 Q7.819,8.057 7.819,8.275 Q7.819,8.474 7.82,8.745 Q7.821,9.016 7.821,9.054 Q7.845,9.054 7.878,9.054 Q7.91,9.054 7.929,9.054 Q8.109,9.054 8.311,9.03 Q8.514,9.005 8.659,8.941 Q8.912,8.833 9.045,8.643 Q9.178,8.452 9.178,8.165 z" fill="#FFFFFF"/>
    <path d="M12.835,10.388 L12.416,10.603 Q12.405,10.574 12.248,10.203 Q12.091,9.832 11.833,9.25 L10.227,9.25 Q9.945,9.875 9.792,10.219 Q9.639,10.563 9.623,10.603 L9.263,10.41 Q9.333,10.27 9.839,9.179 Q10.345,8.087 10.89,6.884 L11.24,6.884 Q11.777,8.087 12.295,9.215 Q12.813,10.343 12.835,10.388 z M11.68,8.906 Q11.535,8.578 11.374,8.221 Q11.213,7.864 11.035,7.475 L11.025,7.475 Q10.888,7.77 10.694,8.201 Q10.501,8.632 10.375,8.906 L10.377,8.909 L11.677,8.909 z" fill="#FFFFFF"/>
  </g>
</svg>
